<svg data-v-0dd9719b="" version="1.0" xmlns="http://www.w3.org/2000/svg" xmlns:xlink="http://www.w3.org/1999/xlink" width="100%" height="100%" viewBox="0 0 340.000000 250.000000" preserveAspectRatio="xMidYMid meet" color-interpolation-filters="sRGB" style="margin: auto;"> <rect data-v-0dd9719b="" x="0" y="0" width="100%" height="100%" fill="#ffffff" fill-opacity="1" class="background"></rect> <rect data-v-0dd9719b="" x="0" y="0" width="100%" height="100%" fill="url(#watermark)" fill-opacity="1" class="watermarklayer"></rect> <g data-v-0dd9719b="" fill="#333" class="icon-text-wrapper icon-svg-group iconsvg" transform="translate(52.099998474121094,94.99699974060059)"><g class="iconsvg-imagesvg" transform="translate(0,0)"><g><rect fill="#333" fill-opacity="0" stroke-width="2" x="0" y="0" width="60" height="60.006000600060005" class="image-rect"></rect> <svg x="0" y="0" width="60" height="60.006000600060005" filtersec="colorsb4716594664" class="image-svg-svg primary" style="overflow: visible;"><svg xmlns="http://www.w3.org/2000/svg" viewBox="0 0 1408.8599853515625 1409"><title>资源 3</title><path fill="#ff6563" d="M704.39 1408.49h704.41V704.71l-704.41 703.78zM975.59 433.57h433.21V.33L975.59 433.57zM0 1408.49h407.57v-406.5L0 1408.49zM0 704.24h704.56V.32L0 704.24z"></path><path fill="#0074e7" d="M386.85 0H.32v386.97L386.85 0zM704.64 704.24H.32V1409l704.32-704.76zM1408.86 0H841.15v567.16L1408.86 0z"></path><path fill="#0074e7" d="M1167.48 704.24H704.56v463.33l462.92-463.33z"></path></svg></svg> <!----></g></g> <g transform="translate(67,3.278066635131836)"><g data-gra="path-name" fill-rule="" class="tp-name iconsvg-namesvg" transform="translate(0,0)"><g transform="scale(1)"><g><path d="M39.55-31.17L39.55-31.17 29.09-31.17 28.76-32.33 33.78-32.33 36.23-35.53Q39.01-33.37 40.72-31.83L40.72-31.83Q40.55-31.17 39.55-31.17ZM7.93-36.11L7.93-36.11 13.65-33.37Q13.32-32.71 12.08-32.79L12.08-32.79Q10.17-30.75 7.3-28.51 4.44-26.27 1.62-24.82L1.62-24.82 1.2-25.28Q3.11-27.39 4.98-30.48 6.85-33.58 7.93-36.11ZM23.12-18.8L23.12-14.07 25.61-14.07 25.61-18.8 23.12-18.8ZM19.71-18.8L17.31-18.8 17.31-14.07 19.71-14.07 19.71-18.8ZM22.45-29.76L22.45-29.76 19.67-29.76Q18.47-27.68 17.02-25.98L17.02-25.98 17.85-25.61 21.21-25.61Q21.33-26.02 21.6-26.87 21.87-27.72 22.08-28.45 22.29-29.18 22.45-29.76ZM19.71-24.45L17.31-24.45 17.31-19.96 19.71-19.96 19.71-24.45ZM25.61-19.96L25.61-24.45 23.12-24.45 23.12-19.96 25.61-19.96ZM29.76-22.83L34.78-22.83 37.27-26.15Q40.18-23.91 41.92-22.33L41.92-22.33Q41.71-21.62 40.76-21.62L40.76-21.62 38.1-21.62 38.1-1.83Q38.1 0.79 36.92 2.14 35.73 3.49 32.08 3.74L32.08 3.74Q31.96 1.74 31.36 0.87 30.75 0 29.14-0.54L29.14-0.54Q28.89 0.66 27.72 1.06 26.56 1.45 25.19 0.54L25.19 0.54Q24.65-2.12 22.2-4.98L22.2-4.98Q21.17-2.12 18.53 0.04 15.9 2.2 10.79 3.78L10.79 3.78 10.42 3.03Q14.19 0.95 15.98-1.45 17.76-3.86 18.34-6.97L18.34-6.97 11.58-6.97 11.21-8.22 18.55-8.22Q18.8-10.71 18.84-12.16L18.84-12.16 24.69-11.7Q24.53-10.71 23.24-10.58L23.24-10.58Q23.2-10.33 23.16-9.84 23.12-9.34 23.08-8.94 23.03-8.55 22.99-8.22L22.99-8.22 25.48-8.22 27.89-11.29Q30.59-9.13 32.21-7.64L32.21-7.64Q32.08-6.97 31.09-6.97L31.09-6.97 22.74-6.97Q22.66-6.43 22.5-5.89L22.5-5.89Q25.82-5.31 27.43-4.05 29.05-2.78 29.18-1.37L29.18-1.37Q31.75-1.2 32.58-1.2L32.58-1.2Q33.45-1.2 33.45-1.95L33.45-1.95 33.45-21.62 29.76-21.62 29.76-12.66Q29.76-12.41 28.51-11.93 27.27-11.46 26.35-11.46L26.35-11.46 25.61-11.46 25.61-12.82 17.31-12.82 17.31-12.41Q17.31-12.16 16.91-11.79 16.52-11.41 15.73-11.08 14.94-10.75 14.03-10.75L14.03-10.75 13.24-10.75 13.24-22.25Q12.16-21.33 11.66-21L11.66-21 11.12-21.42Q12.37-23.24 13.2-24.9L13.2-24.9Q12.87-24.78 12.2-24.86L12.2-24.86Q10.33-22.12 8.63-20.13L8.63-20.13 11.25-19.17Q10.96-18.51 9.96-18.34L9.96-18.34 9.96 2.45Q9.92 2.61 9.38 2.91 8.84 3.2 7.95 3.47 7.06 3.74 6.27 3.74L6.27 3.74 5.4 3.74 5.4-16.6Q3.28-14.48 1.12-12.87L1.12-12.87 0.62-13.36Q2.86-16.35 4.98-20.59 7.1-24.82 8.3-28.26L8.3-28.26 13.57-25.57Q15.9-30.3 17.31-36.15L17.31-36.15 23.24-34.12Q22.95-33.29 21.58-33.33L21.58-33.33Q20.71-31.46 20.42-30.96L20.42-30.96 22.29-30.96 24.49-33.2 28.35-29.68Q27.89-29.22 26.73-29.18L26.73-29.18Q24.82-27.39 22.41-25.61L22.41-25.61 25.32-25.61 27.1-27.52 30.84-24.74Q30.59-24.36 29.76-24.16L29.76-24.16 29.76-22.83ZM65.83-16.19L65.83-1.91 76.41-1.91 76.41-16.19 65.83-16.19ZM76.41-17.43L76.41-31.34 65.83-31.34 65.83-17.43 76.41-17.43ZM50.3-9.42L52.92-9.42Q54.87-9.42 54.87-12.04L54.87-12.04Q54.87-17.02 51.67-20.83L51.67-20.83Q53.33-26.44 54.29-31.88L54.29-31.88 50.3-31.88 50.3-9.42ZM76.16-32.54L78.69-35.49 83.3-31.75Q82.63-31 81.39-30.8L81.39-30.8 81.39 1.58Q81.39 1.74 80.89 2.1 80.39 2.45 79.38 2.76 78.36 3.07 77.28 3.07L77.28 3.07 76.41 3.07 76.41-0.71 65.83-0.71 65.83 2.28Q65.83 2.49 65.37 2.8 64.91 3.11 63.96 3.4 63 3.69 61.88 3.69L61.88 3.69 61.01 3.69 61.01-30.67Q60.47-30.46 59.6-30.46L59.6-30.46Q55.74-24.2 52.79-20.92L52.79-20.92Q56.15-18.97 57.86-16.17 59.56-13.36 59.56-10.54L59.56-10.54Q59.56-7.35 58.04-5.6 56.53-3.86 52.96-3.82L52.96-3.82Q52.96-6.77 52.38-7.8L52.38-7.8Q51.88-8.59 50.3-8.92L50.3-8.92 50.3 2.24Q50.3 2.45 49.87 2.8 49.43 3.15 48.5 3.47 47.56 3.78 46.48 3.78L46.48 3.78 45.65 3.78 45.65-35.11 50.88-33.08 53.96-33.08 56.61-35.61 61.01-31.54 61.01-34.61 66.36-32.54 76.16-32.54ZM88.07-18.05L88.07-18.05 87.74-18.64Q91.68-20.63 94.9-23.53 98.12-26.44 100.11-29.68L100.11-29.68 89.27-29.68 88.94-30.84 103.39-30.84 103.39-36.11 110.11-35.53Q109.9-34.53 108.53-34.32L108.53-34.32 108.53-30.84 116.46-30.84 119.12-34.32Q122.15-31.96 123.89-30.34L123.89-30.34Q123.76-29.68 122.73-29.68L122.73-29.68 109.9-29.68Q112.48-27.27 116.71-25.46 120.94-23.66 125.3-22.87L125.3-22.87 125.26-22.41Q122.4-21.71 121.73-18.18L121.73-18.18Q112.97-21.62 108.74-29.68L108.74-29.68 108.53-29.68 108.53-18.34Q108.53-18.18 107.91-17.91 107.29-17.64 106.25-17.41 105.21-17.18 104.3-17.18L104.3-17.18 103.39-17.18 103.39-26.48Q97.78-20.92 88.07-18.05ZM124.8-11.79L124.8-11.79 117.37-11.79Q118.83-9.05 121.36-6.93 123.89-4.81 126.75-3.69L126.75-3.69 126.67-3.24Q123.93-2.61 123.02 1.16L123.02 1.16Q118.74-2.49 116.75-10.42L116.75-10.42 116.75 2.45Q116.75 2.78 115.44 3.24 114.14 3.69 112.89 3.69L112.89 3.69 111.98 3.69 111.98-6.68Q107.95-1.87 101.44 1.25L101.44 1.25 101.06 0.66Q107.2-4.07 110.15-11.79L110.15-11.79 105.75-11.79 105.71-11.99Q105.38-11.79 104.84-11.79L104.84-11.79 98.61-11.79 98.61-10.71Q103.76-9.88 104.8-7.35L104.8-7.35Q105.46-5.85 104.3-4.77L104.3-4.77Q103.05-3.65 101.39-4.61L101.39-4.61Q101.19-4.73 100.98-4.9L100.98-4.9Q100.73-7.26 98.61-9.96L98.61-9.96 98.61 2.41Q98.61 2.74 97.33 3.24 96.04 3.74 94.88 3.74L94.88 3.74 93.96 3.74 93.96-5.23Q90.85-1.58 86.41 1.04L86.41 1.04 86 0.46Q90.4-3.94 92.84-11.79L92.84-11.79 86.99-11.79 86.66-12.99 93.96-12.99 93.96-18.93 100.02-18.34Q99.9-17.47 98.61-17.27L98.61-17.27 98.61-12.99 99.9-12.99 102.06-16.02Q104.01-14.4 105.46-12.99L105.46-12.99 111.98-12.99 111.98-18.84 118.16-18.22Q118-17.35 116.75-17.18L116.75-17.18 116.75-12.99 119.16-12.99 121.61-16.35Q124.35-14.07 125.96-12.45L125.96-12.45Q125.8-11.79 124.8-11.79ZM148.92-0.75L148.92-0.75 146.72-5.44Q147.01-5.52 147.82-5.81 148.63-6.1 148.96-6.23L148.96-6.23 148.96-13.24 145.97-13.24Q145.68-3.4 138.71 0.62L138.71 0.62 138.21 0.21Q141.9-4.27 141.9-13.86L141.9-13.86 141.9-16.23 146.67-14.48 148.54-14.48 150.53-16.56 154.56-13.49Q154.06-12.82 152.82-12.58L152.82-12.58 152.82-7.55Q154.15-8.05 156.97-9.13L156.97-9.13 157.13-8.67Q156.76-8.34 155.43-7.08 154.1-5.81 152.71-4.54 151.32-3.28 149.83-1.99L149.83-1.99Q149.7-1.04 148.92-0.75ZM162.11-24.94L162.11-24.94 160.37-24.94Q159.29-22.12 157.92-19.88L157.92-19.88Q158.71-15.4 160.12-11.99L160.12-11.99Q161.87-17.39 162.11-24.94ZM168.17-24.94L168.17-24.94 166.89-24.94Q166.06-13.82 162.45-7.55L162.45-7.55Q165.1-3.57 169.42-1.08L169.42-1.08 169.29-0.62Q165.97 0.12 165.14 3.49L165.14 3.49Q161.99 0.66 160.08-4.19L160.08-4.19Q155.76 0.87 148.42 3.78L148.42 3.78 148.13 3.32Q155.56-1.45 158.75-8.47L158.75-8.47Q157.67-12.99 157.22-18.68L157.22-18.68Q156.18-17.1 155.18-15.98L155.18-15.98 154.56-16.27Q154.64-16.52 154.81-16.98 154.98-17.43 155.06-17.68L155.06-17.68 139.95-17.68 139.62-18.88 150.41-18.88 152.32-21.58 151.28-21.58 151.28-22.79 143.73-22.79 143.73-21.58Q143.73-21.33 142.69-20.96 141.65-20.59 140.7-20.59L140.7-20.59 139.99-20.59 139.99-23.78 139.87-23.78Q138.08-21.17 135.43-18.26L135.43-18.26 138.87-17.02Q138.66-16.39 137.59-16.15L137.59-16.15 137.59 2.53Q137.54 2.7 137 2.97 136.46 3.24 135.57 3.49 134.68 3.74 133.89 3.74L133.89 3.74 133.02 3.74 133.02-15.77Q130.9-13.7 128.54-12.04L128.54-12.04 128.08-12.45Q130.32-15.44 132.4-19.74 134.47-24.03 135.55-27.39L135.55-27.39 139.99-25.15 139.99-32.33Q139.83-32.29 139.2-32.37L139.2-32.37Q134.68-27.48 129.58-24.61L129.58-24.61 129.12-25.03Q130.86-27.23 132.5-30.38 134.14-33.54 135.1-36.11L135.1-36.11 140.82-32.91Q140.74-32.71 140.62-32.66L140.62-32.66 145.01-32.25Q144.81-31.5 143.73-31.29L143.73-31.29 143.73-24.03 145.72-24.03 145.72-35.57 150.62-35.11Q150.53-34.28 149.33-34.07L149.33-34.07 149.33-24.03 151.28-24.03 151.28-32.71 156.35-32.25Q156.22-31.5 155.14-31.29L155.14-31.29 155.14-22.62Q155.14-22.41 154.39-22.1 153.65-21.79 152.78-21.62L152.78-21.62Q154.31-20.34 155.47-19.13L155.47-19.13Q157.67-26.77 158.13-35.86L158.13-35.86 164.52-34.7Q164.31-33.74 162.94-33.62L162.94-33.62Q162.07-29.63 160.83-26.19L160.83-26.19 162.9-26.19 165.14-28.97Q167.68-27.06 169.38-25.61L169.38-25.61Q169.21-24.94 168.17-24.94Z" transform="translate(-0.6200000047683716, 36.150001525878906)"></path></g> <!----> <!----> <!----> <!----> <!----> <!----> <!----></g></g> <g data-gra="path-slogan" fill-rule="" class="tp-slogan iconsvg-slogansvg" fill="#333" transform="translate(5,46.93000030517578)"><rect x="0" height="1" y="3.259999990463257" width="28.375"></rect> <rect height="1" y="3.259999990463257" width="28.375" x="130.4250030517578"></rect> <g transform="translate(31.375,0)"><g transform="scale(1)"><path d="M1.73-4.25L5.51-4.25L5.51-7.20L6.49-7.20L6.49 0L5.51 0L5.51-3.35L1.73-3.35L1.73 0L0.75 0L0.75-7.20L1.73-7.20L1.73-4.25ZM8.94-0.87L13.27-0.87L13.27 0L7.95 0L7.95-7.20L13.19-7.20L13.19-6.38L8.94-6.38L8.94-4.13L12.87-4.13L12.87-3.27L8.94-3.27L8.94-0.87ZM15.55-7.20L19.18-1.38L19.18-7.20L20.12-7.20L20.12 0L19.02 0L15.36-5.83L15.32-5.83L15.32 0L14.37 0L14.37-7.20L15.55-7.20ZM26.85-3.03L24.65-3.03L24.65-3.86L27.80-3.86L27.80 0L27.17 0L26.93-0.91Q26.11 0.08 24.57 0.12L24.57 0.12Q23.12 0.12 22.33-0.63L22.33-0.63Q21.15-1.73 21.19-3.66L21.19-3.66Q21.46-7.24 24.61-7.40L24.61-7.40Q27.29-7.24 27.68-5.04L27.68-5.04L26.74-5.04Q26.34-6.53 24.57-6.57L24.57-6.57Q22.33-6.42 22.21-3.62L22.21-3.62Q22.21-0.63 24.61-0.63L24.61-0.63Q25.48-0.63 26.11-1.10L26.11-1.10Q26.89-1.73 26.85-3.03L26.85-3.03ZM34.97-7.20L32.25-2.91L32.25 0L31.27 0L31.27-2.91L28.55-7.20L29.69-7.20L31.74-3.74L33.83-7.20L34.97-7.20ZM40.44 0L39.73-2.09L36.82-2.09L36.07 0L35.09 0L37.80-7.20L38.91-7.20L41.50 0L40.44 0ZM38.28-6.14L37.14-2.95L39.38-2.95L38.32-6.14L38.28-6.14ZM43.40-7.20L47.02-1.38L47.02-7.20L47.96-7.20L47.96 0L46.86 0L43.20-5.83L43.16-5.83L43.16 0L42.22 0L42.22-7.20L43.40-7.20ZM54.70-3.03L52.49-3.03L52.49-3.86L55.64-3.86L55.64 0L55.01 0L54.78-0.91Q53.95 0.08 52.41 0.12L52.41 0.12Q50.96 0.12 50.17-0.63L50.17-0.63Q48.99-1.73 49.03-3.66L49.03-3.66Q49.31-7.24 52.45-7.40L52.45-7.40Q55.13-7.24 55.52-5.04L55.52-5.04L54.58-5.04Q54.19-6.53 52.41-6.57L52.41-6.57Q50.17-6.42 50.05-3.62L50.05-3.62Q50.05-0.63 52.45-0.63L52.45-0.63Q53.32-0.63 53.95-1.10L53.95-1.10Q54.74-1.73 54.70-3.03L54.70-3.03ZM64.90-5.12L64.90-5.12L63.99-5.12Q63.92-6.49 62.18-6.57L62.18-6.57Q60.57-6.53 60.57-5.31L60.57-5.31Q60.57-4.53 61.44-4.41L61.44-4.41L63.48-3.94Q65.10-3.54 65.10-1.97L65.10-1.97Q65.06 0.04 62.26 0.12L62.26 0.12Q60.73 0.12 60.10-0.51L60.10-0.51Q59.31-1.10 59.35-2.32L59.35-2.32L60.29-2.32Q60.33-0.67 62.26-0.63L62.26-0.63Q64.15-0.67 64.19-1.85L64.19-1.85Q64.35-2.83 62.62-3.15L62.62-3.15L61.12-3.46Q59.59-3.90 59.59-5.20L59.59-5.20Q59.70-7.32 62.10-7.40L62.10-7.40Q64.82-7.40 64.90-5.12ZM67.26-0.87L71.59-0.87L71.59 0L66.28 0L66.28-7.20L71.52-7.20L71.52-6.38L67.26-6.38L67.26-4.13L71.20-4.13L71.20-3.27L67.26-3.27L67.26-0.87ZM73.88-7.20L77.50-1.38L77.50-7.20L78.45-7.20L78.45 0L77.34 0L73.68-5.83L73.64-5.83L73.64 0L72.70 0L72.70-7.20L73.88-7.20ZM83.80-5.98L83.76-5.98L82.11 0L81.09 0L79.20-7.20L80.22-7.20L81.60-1.34L81.64-1.34L83.25-7.20L84.31-7.20L85.93-1.34L85.97-1.34L87.31-7.20L88.37-7.20L86.48 0L85.46 0L83.80-5.98ZM90.22-0.87L94.55-0.87L94.55 0L89.24 0L89.24-7.20L94.47-7.20L94.47-6.38L90.22-6.38L90.22-4.13L94.16-4.13L94.16-3.27L90.22-3.27L90.22-0.87ZM95.82-7.20L96.80-7.20L96.80 0L95.82 0L95.82-7.20Z" transform="translate(-0.7478583005325307, 7.399861078953461)"></path></g></g></g></g></g><defs v-gra="od"></defs></svg>